<svg width="91" height="48" viewBox="0 0 91 48" fill="none" xmlns="http://www.w3.org/2000/svg">
<rect x="0.9375" y="0.5" width="89.5625" height="47" rx="11.5" stroke="#DDDDDD"/>
<g clip-path="url(#clip0_1_4877)">
<path d="M21.8126 24C22.9554 24 23.9284 24.7306 24.2889 25.75H29.6876V27.5H24.288C24.1277 27.954 23.8457 28.3552 23.4728 28.6598C23.0998 28.9643 22.6503 29.1605 22.1734 29.2267C21.6965 29.293 21.2105 29.2269 20.7687 29.0356C20.3268 28.8443 19.9461 28.5352 19.668 28.1421C19.39 27.749 19.2254 27.287 19.1923 26.8067C19.1591 26.3263 19.2587 25.8461 19.4801 25.4185C19.7014 24.991 20.0361 24.6325 20.4475 24.3823C20.8589 24.1321 21.3312 23.9999 21.8126 24ZM21.8126 25.75C21.5806 25.75 21.358 25.8422 21.1939 26.0063C21.0298 26.1704 20.9376 26.3929 20.9376 26.625C20.9376 26.8571 21.0298 27.0796 21.1939 27.2437C21.358 27.4078 21.5806 27.5 21.8126 27.5C22.0447 27.5 22.2673 27.4078 22.4314 27.2437C22.5955 27.0796 22.6876 26.8571 22.6876 26.625C22.6876 26.3929 22.5955 26.1704 22.4314 26.0063C22.2673 25.8422 22.0447 25.75 21.8126 25.75ZM27.0626 18.75C27.5439 18.7501 28.0158 18.8825 28.4269 19.1327C28.838 19.3828 29.1724 19.7412 29.3935 20.1686C29.6147 20.596 29.7141 21.076 29.6809 21.5561C29.6477 22.0361 29.4832 22.4979 29.2053 22.8907C28.9274 23.2836 28.5469 23.5926 28.1053 23.7838C27.6637 23.9751 27.178 24.0412 26.7014 23.9751C26.2247 23.909 25.7754 23.7131 25.4026 23.4088C25.0297 23.1046 24.7477 22.7037 24.5873 22.25H19.1876V20.5H24.5864C24.7675 19.9881 25.1029 19.5449 25.5464 19.2315C25.9899 18.9181 26.5196 18.7498 27.0626 18.75ZM27.0626 20.5C26.8306 20.5 26.608 20.5922 26.4439 20.7563C26.2798 20.9204 26.1876 21.1429 26.1876 21.375C26.1876 21.6071 26.2798 21.8296 26.4439 21.9937C26.608 22.1578 26.8306 22.25 27.0626 22.25C27.2947 22.25 27.5173 22.1578 27.6814 21.9937C27.8455 21.8296 27.9376 21.6071 27.9376 21.375C27.9376 21.1429 27.8455 20.9204 27.6814 20.7563C27.5173 20.5922 27.2947 20.5 27.0626 20.5Z" fill="#222222"/>
</g>
<path d="M41.9531 19.4688V28H40.3418V19.4688H41.9531ZM45.3926 23.1543V24.4258H41.5312V23.1543H45.3926ZM45.8438 19.4688V20.7402H41.5312V19.4688H45.8438ZM48.4629 21.6602V28H46.9102V21.6602H48.4629ZM46.8047 20.002C46.8047 19.7715 46.8828 19.5801 47.0391 19.4277C47.1992 19.2754 47.4141 19.1992 47.6836 19.1992C47.9531 19.1992 48.166 19.2754 48.3223 19.4277C48.4824 19.5801 48.5625 19.7715 48.5625 20.002C48.5625 20.2285 48.4824 20.418 48.3223 20.5703C48.166 20.7227 47.9531 20.7988 47.6836 20.7988C47.4141 20.7988 47.1992 20.7227 47.0391 20.5703C46.8828 20.418 46.8047 20.2285 46.8047 20.002ZM51.5801 19V28H50.0273V19H51.5801ZM56.0566 21.6602V22.7734H52.4238V21.6602H56.0566ZM53.3965 20.1016H54.9492V26.1719C54.9492 26.3594 54.9746 26.5039 55.0254 26.6055C55.0762 26.707 55.1523 26.7754 55.2539 26.8105C55.3555 26.8457 55.4766 26.8633 55.6172 26.8633C55.7188 26.8633 55.8125 26.8574 55.8984 26.8457C55.9844 26.834 56.0566 26.8223 56.1152 26.8105L56.1211 27.9707C55.9922 28.0137 55.8457 28.0488 55.6816 28.0762C55.5215 28.1035 55.3398 28.1172 55.1367 28.1172C54.7891 28.1172 54.4844 28.0586 54.2227 27.9414C53.9609 27.8203 53.7578 27.627 53.6133 27.3613C53.4688 27.0918 53.3965 26.7363 53.3965 26.2949V20.1016ZM59.9355 28.1172C59.4551 28.1172 59.0234 28.0391 58.6406 27.8828C58.2578 27.7266 57.9316 27.5098 57.6621 27.2324C57.3965 26.9512 57.1914 26.625 57.0469 26.2539C56.9062 25.8789 56.8359 25.4766 56.8359 25.0469V24.8125C56.8359 24.3242 56.9062 23.8809 57.0469 23.4824C57.1875 23.0801 57.3867 22.7344 57.6445 22.4453C57.9023 22.1562 58.2109 21.9336 58.5703 21.7773C58.9297 21.6211 59.3262 21.543 59.7598 21.543C60.209 21.543 60.6055 21.6191 60.9492 21.7715C61.293 21.9199 61.5801 22.1309 61.8105 22.4043C62.041 22.6777 62.2148 23.0059 62.332 23.3887C62.4492 23.7676 62.5078 24.1875 62.5078 24.6484V25.2988H57.5391V24.2324H60.9844V24.1152C60.9766 23.8691 60.9297 23.6445 60.8438 23.4414C60.7578 23.2344 60.625 23.0703 60.4453 22.9492C60.2656 22.8242 60.0332 22.7617 59.748 22.7617C59.5176 22.7617 59.3164 22.8125 59.1445 22.9141C58.9766 23.0117 58.8359 23.1523 58.7227 23.3359C58.6133 23.5156 58.5312 23.7305 58.4766 23.9805C58.4219 24.2305 58.3945 24.5078 58.3945 24.8125V25.0469C58.3945 25.3125 58.4297 25.5586 58.5 25.7852C58.5742 26.0117 58.6816 26.209 58.8223 26.377C58.9668 26.541 59.1387 26.6699 59.3379 26.7637C59.541 26.8535 59.7715 26.8984 60.0293 26.8984C60.3535 26.8984 60.6465 26.8359 60.9082 26.7109C61.1738 26.582 61.4043 26.3926 61.5996 26.1426L62.3789 26.9512C62.2461 27.1465 62.0664 27.334 61.8398 27.5137C61.6172 27.6934 61.3477 27.8398 61.0312 27.9531C60.7148 28.0625 60.3496 28.1172 59.9355 28.1172ZM65.0918 22.9551V28H63.5449V21.6602H65.0098L65.0918 22.9551ZM67.0195 21.6191L66.9961 23.0605C66.9102 23.0449 66.8125 23.0332 66.7031 23.0254C66.5977 23.0176 66.498 23.0137 66.4043 23.0137C66.166 23.0137 65.957 23.0469 65.7773 23.1133C65.5977 23.1758 65.4473 23.2676 65.3262 23.3887C65.209 23.5098 65.1191 23.6582 65.0566 23.834C64.9941 24.0059 64.959 24.2012 64.9512 24.4199L64.6172 24.3789C64.6172 23.9766 64.6582 23.6035 64.7402 23.2598C64.8223 22.916 64.9414 22.6152 65.0977 22.3574C65.2539 22.0996 65.4492 21.9004 65.6836 21.7598C65.9219 21.6152 66.1953 21.543 66.5039 21.543C66.5898 21.543 66.6816 21.5508 66.7793 21.5664C66.8809 21.5781 66.9609 21.5957 67.0195 21.6191ZM71.3555 26.2656C71.3555 26.1328 71.3203 26.0137 71.25 25.9082C71.1797 25.8027 71.0469 25.707 70.8516 25.6211C70.6602 25.5312 70.3789 25.4473 70.0078 25.3691C69.6797 25.2988 69.377 25.2109 69.0996 25.1055C68.8223 25 68.584 24.873 68.3848 24.7246C68.1855 24.5723 68.0293 24.3945 67.916 24.1914C67.8066 23.9844 67.752 23.7461 67.752 23.4766C67.752 23.2148 67.8086 22.9688 67.9219 22.7383C68.0352 22.5039 68.1992 22.2988 68.4141 22.123C68.6289 21.9434 68.8906 21.8027 69.1992 21.7012C69.5078 21.5957 69.8555 21.543 70.2422 21.543C70.7812 21.543 71.2441 21.6309 71.6309 21.8066C72.0215 21.9824 72.3203 22.2246 72.5273 22.5332C72.7344 22.8379 72.8379 23.1816 72.8379 23.5645H71.291C71.291 23.3965 71.252 23.2441 71.1738 23.1074C71.0996 22.9707 70.9844 22.8613 70.8281 22.7793C70.6719 22.6934 70.4746 22.6504 70.2363 22.6504C70.0215 22.6504 69.8398 22.6855 69.6914 22.7559C69.5469 22.8262 69.4375 22.918 69.3633 23.0312C69.2891 23.1445 69.252 23.2695 69.252 23.4062C69.252 23.5078 69.2715 23.5996 69.3105 23.6816C69.3535 23.7598 69.4219 23.832 69.5156 23.8984C69.6094 23.9648 69.7363 24.0254 69.8965 24.0801C70.0605 24.1348 70.2617 24.1875 70.5 24.2383C70.9727 24.332 71.3848 24.457 71.7363 24.6133C72.0918 24.7656 72.3691 24.9688 72.5684 25.2227C72.7676 25.4766 72.8672 25.8008 72.8672 26.1953C72.8672 26.4766 72.8066 26.7344 72.6855 26.9688C72.5645 27.1992 72.3887 27.4004 72.1582 27.5723C71.9277 27.7441 71.6523 27.8789 71.332 27.9766C71.0117 28.0703 70.6504 28.1172 70.248 28.1172C69.666 28.1172 69.1738 28.0137 68.7715 27.8066C68.3691 27.5957 68.0645 27.3301 67.8574 27.0098C67.6504 26.6855 67.5469 26.3496 67.5469 26.002H69.0293C69.041 26.248 69.1074 26.4453 69.2285 26.5938C69.3496 26.7422 69.502 26.8496 69.6855 26.916C69.873 26.9785 70.0703 27.0098 70.2773 27.0098C70.5117 27.0098 70.709 26.9785 70.8691 26.916C71.0293 26.8496 71.1504 26.7617 71.2324 26.6523C71.3145 26.5391 71.3555 26.4102 71.3555 26.2656Z" fill="#222222"/>
<defs>
<clipPath id="clip0_1_4877">
<rect width="14" height="14" fill="white" transform="translate(17.4375 17)"/>
</clipPath>
</defs>
</svg>
