<svg width="41" height="42" viewBox="0 0 41 42" fill="none" xmlns="http://www.w3.org/2000/svg">
<path d="M19.752 13C21.81 13.0058 23.7815 13.8278 25.2341 15.2857C26.6867 16.7435 27.5016 18.718 27.5 20.776C27.4931 22.7872 26.7046 24.7169 25.3012 26.1574C23.8978 27.598 21.9893 28.4366 19.979 28.496L19.733 28.5C17.7214 28.4957 15.7904 27.7095 14.3479 26.3075C12.9054 24.9056 12.0645 22.9976 12.003 20.987L12 20.742C12.0021 18.6876 12.8198 16.7181 14.2735 15.2664C15.7271 13.8147 17.6976 12.9995 19.752 13ZM21.701 21.5H17.798C17.953 24.397 18.974 26.843 19.684 26.993L19.752 27C20.432 26.998 21.472 24.635 21.684 21.77L21.701 21.5ZM25.956 21.5H23.204C23.113 23.46 22.674 25.283 22.016 26.576C23.0309 26.1806 23.925 25.5271 24.6099 24.6802C25.2948 23.8332 25.7467 22.8222 25.921 21.747L25.956 21.5ZM16.295 21.5H13.545C13.681 22.6224 14.1186 23.687 14.8113 24.5806C15.504 25.4742 16.4259 26.1634 17.479 26.575C16.864 25.367 16.443 23.7 16.317 21.889L16.295 21.499V21.5ZM17.483 14.924L17.368 14.97C16.3418 15.3938 15.4468 16.0831 14.775 16.967C14.1032 17.851 13.6786 18.8978 13.545 20H16.295C16.38 18.17 16.766 16.46 17.354 15.19L17.483 14.924ZM19.745 14.5C19.043 14.502 17.961 17.012 17.798 20H21.702C21.546 17.097 20.524 14.657 19.81 14.506L19.745 14.499V14.5ZM22.025 14.932L22.048 14.982C22.691 16.27 23.117 18.066 23.205 20H25.953C25.8144 18.88 25.3762 17.8181 24.6848 16.9262C23.9933 16.0343 23.0751 15.3454 22.025 14.932Z" fill="#222222"/>
</svg>
